{
    "asset": {
        "version": "1.0",
        "generator": "Open Asset Import Library (assimp v4.1.0)"
    },
    "accessors": {
        "mesh_accessor": {
            "bufferView": "mesh_view",
            "byteOffset": 0,
            "byteStride": 0,
            "componentType": 5126,
            "count": 1932,
            "type": "VEC3",
            "max": [
                100.0,
                80.0,
                0.0
            ],
            "min": [
                0.0,
                0.0,
                -15.0
            ]
        },
        "mesh_accessor_0": {
            "bufferView": "mesh_view_0",
            "byteOffset": 0,
            "byteStride": 0,
            "componentType": 5126,
            "count": 1932,
            "type": "VEC3",
            "max": [
                1.0,
                1.0,
                1.0
            ],
            "min": [
                -1.0,
                -1.0,
                -1.0
            ]
        },
        "mesh_accessor_1": {
            "bufferView": "mesh_view_1",
            "byteOffset": 0,
            "byteStride": 0,
            "componentType": 5123,
            "count": 3852,
            "type": "SCALAR",
            "max": [
                1931.0
            ],
            "min": [
                0.0
            ]
        }
    },
    "buffers": {
        "../../download/ms4i5abj0joh/ms4i5abj0joh": {
            "byteLength": 54072,
            "type": "arraybuffer",
            "uri": "../../download/ms4i5abj0joh/ms4i5abj0joh.bin"
        }
    },
    "bufferViews": {
        "mesh_view": {
            "buffer": "../../download/ms4i5abj0joh/ms4i5abj0joh",
            "byteOffset": 0,
            "byteLength": 23184,
            "target": 34962
        },
        "mesh_view_0": {
            "buffer": "../../download/ms4i5abj0joh/ms4i5abj0joh",
            "byteOffset": 23184,
            "byteLength": 23184,
            "target": 34962
        },
        "mesh_view_1": {
            "buffer": "../../download/ms4i5abj0joh/ms4i5abj0joh",
            "byteOffset": 46368,
            "byteLength": 7704,
            "target": 34963
        }
    },
    "materials": {
        "DefaultMaterial": {
            "values": {
                "ambient": [
                    1.0,
                    1.0,
                    1.0,
                    1.0
                ],
                "diffuse": [
                    0.7490196228027344,
                    0.7490196228027344,
                    0.7490196228027344,
                    1.0
                ],
                "specular": [
                    0.7490196228027344,
                    0.7490196228027344,
                    0.7490196228027344,
                    1.0
                ],
                "emission": [
                    0.0,
                    0.0,
                    0.0,
                    1.0
                ],
                "shininess": 0.0
            }
        }
    },
    "meshes": {
        "mesh": {
            "name": "",
            "primitives": [
                {
                    "mode": 4,
                    "material": "DefaultMaterial",
                    "indices": "mesh_accessor_1",
                    "attributes": {
                        "POSITION": "mesh_accessor",
                        "NORMAL": "mesh_accessor_0"
                    }
                }
            ]
        }
    },
    "nodes": {
        "<STL_BINARY>": {
            "meshes": [
                "mesh"
            ]
        }
    },
    "scenes": {
        "defaultScene": {
            "nodes": [
                "<STL_BINARY>"
            ]
        }
    },
    "scene": "defaultScene"
}